<svg width="48" height="48" viewBox="0 0 48 48" fill="none" xmlns="http://www.w3.org/2000/svg">
<circle cx="24" cy="24" r="24" fill="#67C3D7" fill-opacity="0.2"/>
<path fill-rule="evenodd" clip-rule="evenodd" d="M27.4643 30C27.9892 30.162 28.5469 30.2492 29.125 30.2492C32.2316 30.2492 34.75 27.7308 34.75 24.6242C34.75 21.8271 32.7085 19.5069 30.0343 19.0723C28.7481 16.7904 26.3021 15.2495 23.4961 15.2495C19.7687 15.2495 16.6764 17.9686 16.0945 21.5314C13.9284 21.7932 12.25 23.6378 12.25 25.8745C12.25 28.2908 14.2087 30.2495 16.625 30.2495C17.1369 30.2495 17.6284 30.1616 18.0849 30H21.5703C22.1848 30.1628 22.8303 30.2496 23.4961 30.2496C24.1618 30.2496 24.8073 30.1628 25.4218 30H27.4643Z" fill="#67C3D7"/>
</svg>
