<svg width="51" height="40" viewBox="0 0 51 40" fill="none" xmlns="http://www.w3.org/2000/svg">
<path d="M45.7724 34.27C42.2649 38.0725 36.9574 40 29.9999 40L27.4999 40L27.4999 32.9525L29.5099 32.55C32.9349 31.865 35.3174 30.5175 36.5924 28.54C37.2577 27.4747 37.635 26.2549 37.6874 25L29.9999 25C29.3369 25 28.701 24.7366 28.2321 24.2678C27.7633 23.7989 27.4999 23.163 27.4999 22.5L27.4999 5C27.4999 2.2425 29.7424 1.77234e-06 32.4999 1.53127e-06L47.4999 2.19931e-07C48.1629 1.61966e-07 48.7988 0.26339 49.2677 0.732231C49.7365 1.20107 49.9999 1.83696 49.9999 2.5L49.9999 15L49.9924 22.2975C50.0149 22.575 50.4899 29.15 45.7724 34.27ZM4.9999 3.9354e-06L19.9999 2.62406e-06C20.6629 2.56609e-06 21.2988 0.263392 21.7677 0.732234C22.2365 1.20108 22.4999 1.83696 22.4999 2.5L22.4999 15L22.4924 22.2975C22.5149 22.575 22.9899 29.15 18.2724 34.27C14.7649 38.0725 9.45741 40 2.4999 40L-9.53674e-05 40L-9.59835e-05 32.9525L2.00991 32.55C5.43491 31.865 7.8174 30.5175 9.0924 28.54C9.75767 27.4747 10.135 26.2549 10.1874 25L2.4999 25C1.83686 25 1.20098 24.7366 0.732134 24.2678C0.263293 23.7989 -9.68394e-05 23.163 -9.68973e-05 22.5L-9.84272e-05 5C-9.86683e-05 2.2425 2.2424 4.17647e-06 4.9999 3.9354e-06Z" fill="#101859" fill-opacity="0.05"/>
</svg>
