<svg width="20" height="14" viewBox="0 0 20 14" fill="none" xmlns="http://www.w3.org/2000/svg">
<path fill-rule="evenodd" clip-rule="evenodd" d="M14.9784 13.4991C14.9856 13.4992 14.9928 13.4992 15 13.4992C17.7614 13.4992 20 11.2606 20 8.49918C20 6.01328 18.1859 3.9511 15.8093 3.56432C14.6661 1.53587 12.4917 0.166016 9.99738 0.166016C6.68424 0.166016 3.93557 2.58285 3.41822 5.74968C1.49218 5.98182 -0.000453949 7.62182 -0.000453949 9.61044C-0.000453949 11.7582 1.74067 13.4993 3.88844 13.4993C3.90159 13.4993 3.91473 13.4993 3.92785 13.4991H9.94006C9.95915 13.4993 9.97825 13.4994 9.99738 13.4994C10.0165 13.4994 10.0356 13.4993 10.0547 13.4991H14.9784Z" fill="#67C3D7"/>
</svg>
