<svg width="24" height="25" viewBox="0 0 24 25" fill="none" xmlns="http://www.w3.org/2000/svg">
<path fill-rule="evenodd" clip-rule="evenodd" d="M16.9784 18.4991C16.9856 18.4992 16.9928 18.4992 17 18.4992C19.7614 18.4992 22 16.2606 22 13.4992C22 11.0133 20.1859 8.9511 17.8093 8.56432C16.6661 6.53587 14.4917 5.16602 11.9974 5.16602C8.68424 5.16602 5.93557 7.58285 5.41822 10.7497C3.49218 10.9818 1.99955 12.6218 1.99955 14.6104C1.99955 16.7582 3.74067 18.4993 5.88844 18.4993C5.90159 18.4993 5.91473 18.4993 5.92785 18.4991H11.9401C11.9591 18.4993 11.9783 18.4994 11.9974 18.4994C12.0165 18.4994 12.0356 18.4993 12.0547 18.4991H16.9784Z" fill="#67C3D7"/>
</svg>
