<svg width="72" height="72" viewBox="0 0 72 72" fill="none" xmlns="http://www.w3.org/2000/svg">
<path d="M62.1372 44.6723L39.3425 34.1897C37.221 33.2141 34.7791 33.2141 32.6576 34.1897L9.86291 44.6723C7.53415 45.7433 7.53415 49.0526 9.86291 50.1235L32.6576 60.6062C34.7791 61.5818 37.221 61.5818 39.3425 60.6062L62.1372 50.1235C64.466 49.0526 64.466 45.7433 62.1372 44.6723Z" fill="#67C3D7"/>
<path d="M62.1372 32.8076L39.3425 22.325C37.221 21.3493 34.7791 21.3493 32.6576 22.325L9.86291 32.8076C7.53415 33.8785 7.53415 37.1879 9.86291 38.2588L32.6576 48.7414C34.7791 49.717 37.221 49.717 39.3425 48.7414L62.1372 38.2588C64.466 37.1879 64.466 33.8785 62.1372 32.8076Z" fill="#101859"/>
<path d="M62.1372 20.9431L39.3425 10.4605C37.221 9.48482 34.7791 9.48482 32.6576 10.4604L9.86291 20.9431C7.53415 22.014 7.53415 25.3234 9.86291 26.3943L32.6576 36.8769C34.7791 37.8525 37.221 37.8525 39.3425 36.8769L62.1372 26.3943C64.466 25.3234 64.466 22.014 62.1372 20.9431Z" fill="#67C3D7"/>
</svg>
