<svg width="73" height="72" viewBox="0 0 73 72" fill="none" xmlns="http://www.w3.org/2000/svg">
<path d="M66.1023 28.589L60.1815 20.0352C59.2476 18.686 57.7111 17.8809 56.0703 17.8809L16.9299 17.8809C15.2891 17.8809 13.7526 18.686 12.8187 20.0352L6.89793 28.589C5.54053 30.55 5.75716 33.1968 7.41538 34.911L32.9063 61.2629C34.8715 63.2944 38.1286 63.2944 40.0938 61.2629L65.5848 34.911C67.243 33.1968 67.4597 30.55 66.1023 28.589Z" fill="#67C3D7"/>
<path d="M20.6787 5.94389C21.158 4.98094 22.5318 4.98094 23.0112 5.94389L26.396 12.744C26.5224 12.9978 26.728 13.2034 26.9818 13.3297L33.7819 16.7146C34.7448 17.1939 34.7448 18.5677 33.7819 19.047L26.9818 22.4319C26.728 22.5582 26.5224 22.7639 26.396 23.0176L23.0112 29.8178C22.5318 30.7807 21.158 30.7807 20.6787 29.8178L17.2938 23.0176C17.1675 22.7639 16.9619 22.5582 16.7081 22.4319L9.908 19.047C8.94506 18.5677 8.94505 17.1939 9.908 16.7146L16.7081 13.3297C16.9619 13.2034 17.1675 12.9978 17.2938 12.744L20.6787 5.94389Z" fill="#101859"/>
</svg>
