<svg width="73" height="72" viewBox="0 0 73 72" fill="none" xmlns="http://www.w3.org/2000/svg">
<path fill-rule="evenodd" clip-rule="evenodd" d="M51.8797 50.6354C51.915 50.6357 51.9503 50.6358 51.9857 50.6358C60.5384 50.6358 67.4717 43.7025 67.4717 35.1498C67.4717 27.4535 61.8574 21.0686 54.5009 19.867C50.9606 13.5836 44.2256 9.34009 36.4994 9.34009C26.2384 9.34009 17.7255 16.8249 16.1227 26.6326C10.1541 27.3486 5.52771 32.4295 5.52771 38.5909C5.52771 45.243 10.9203 50.6356 17.5724 50.6356C17.5941 50.6356 17.6157 50.6355 17.6374 50.6354H36.335C36.3897 50.6359 36.4446 50.6361 36.4994 50.6361C36.5543 50.6361 36.6091 50.6359 36.6638 50.6354H51.8797Z" fill="#67C3D7"/>
<path fill-rule="evenodd" clip-rule="evenodd" d="M34.3043 52.9951C34.3048 53.0141 34.305 53.0332 34.305 53.0524V62.0804C34.305 63.0998 33.6909 64.0189 32.749 64.409C31.8071 64.7992 30.723 64.5835 30.0022 63.8626L20.9742 54.8347C20.2533 54.1138 20.0376 53.0297 20.4278 52.0878C20.8179 51.1459 21.737 50.5318 22.7564 50.5318H28.2551V34.9963H34.3043V52.9951Z" fill="#101859"/>
<path fill-rule="evenodd" clip-rule="evenodd" d="M38.6952 39.0169C38.6948 38.9978 38.6945 38.9787 38.6945 38.9596V29.9316C38.6945 28.9121 39.3087 27.9931 40.2505 27.6029C41.1924 27.2128 42.2765 27.4284 42.9974 28.1493L52.0254 37.1773C52.7462 37.8982 52.9619 38.9823 52.5717 39.9242C52.1816 40.866 51.2625 41.4801 50.2431 41.4801H44.7445V57.0156H38.6952V39.0169Z" fill="#101859"/>
</svg>
