<svg width="72" height="72" viewBox="0 0 72 72" fill="none" xmlns="http://www.w3.org/2000/svg">
<path fill-rule="evenodd" clip-rule="evenodd" d="M48.359 47.3624C54.5741 43.3164 58.6834 36.3072 58.6834 28.3383C58.6834 15.8105 48.5277 5.65479 35.9999 5.65479C23.4722 5.65479 13.3164 15.8105 13.3164 28.3383C13.3164 36.3071 17.4256 43.3162 23.6406 47.3622V53.9234C23.6406 56.1326 25.4315 57.9234 27.6406 57.9234H44.359C46.5681 57.9234 48.359 56.1326 48.359 53.9234V47.3624Z" fill="#67C3D7"/>
<path d="M35.9999 65.4117C40.1355 65.4117 43.488 62.0592 43.488 57.9236H28.5117C28.5117 62.0592 31.8643 65.4117 35.9999 65.4117Z" fill="#101859"/>
<path fill-rule="evenodd" clip-rule="evenodd" d="M37.6498 18.564C37.6498 16.9663 35.6057 16.3016 34.6659 17.5937L26.3575 29.0177C25.5645 30.1082 26.3434 31.6378 27.6917 31.6378H34.3504V38.1126C34.3504 39.7104 36.3946 40.3751 37.3343 39.083L45.6427 27.6589C46.4357 26.5685 45.6568 25.0389 44.3085 25.0389H37.6498V18.564Z" fill="#101859"/>
</svg>
