<svg width="73" height="72" viewBox="0 0 73 72" fill="none" xmlns="http://www.w3.org/2000/svg">
<path d="M8.94385 21.5347H64.0565V53.6342C64.0565 55.8433 62.2657 57.6342 60.0565 57.6342H12.9439C10.7347 57.6342 8.94385 55.8434 8.94385 53.6342V21.5347Z" fill="#67C3D7"/>
<path d="M8.94385 17.4321C8.94385 15.223 10.7347 13.4321 12.9438 13.4321H60.0565C62.2657 13.4321 64.0565 15.223 64.0565 17.4321V21.5347H8.94385V17.4321Z" fill="#101859"/>
<path d="M40.0554 32.8708L56.3873 45.7493C57.8049 46.8671 57.2009 49.1721 55.4251 49.4214L51.3171 49.998L50.436 50.1294L54.6144 57.3665C55.476 58.8588 54.9646 60.7671 53.4723 61.6287C51.98 62.4903 50.0717 61.979 49.2101 60.4867L45.0949 53.359L44.6664 53.9117L42.1235 57.2488C41.0243 58.6914 38.7627 58.0728 38.5206 56.2632L35.7312 35.4154C35.405 32.9777 38.1457 31.3649 40.0554 32.8708Z" fill="#101859"/>
</svg>
