<svg width="72" height="72" viewBox="0 0 72 72" fill="none" xmlns="http://www.w3.org/2000/svg">
<g clip-path="url(#clip0_430_3481)">
<path d="M14.6802 37.7832C13.1799 36.2829 12.337 34.2481 12.337 32.1264L12.337 16.766C12.337 13.4523 15.0233 10.766 18.337 10.766L33.6974 10.766C35.8191 10.766 37.854 11.6088 39.3543 13.1091L60.7868 34.5417C63.13 36.8849 63.13 40.6838 60.7868 43.027L44.598 59.2158C42.2549 61.5589 38.4559 61.5589 36.1128 59.2158L14.6802 37.7832Z" fill="#67C3D7"/>
<path d="M62.4719 23.1027C51.1471 20.375 48.8208 25.6296 36.4229 23.7515C35.4136 23.5986 34.4727 24.3613 34.4727 25.3821V40.6469C34.4727 41.4226 35.0219 42.0932 35.7871 42.2207C48.4095 44.3236 50.8345 39.1779 61.5961 41.474C62.6436 41.6975 63.669 40.9246 63.669 39.8536V24.6478C63.669 23.9178 63.1817 23.2736 62.4719 23.1027Z" fill="#101859"/>
<circle cx="49.0707" cy="32.5187" r="4.26628" fill="#67C3D7"/>
</g>
<defs>
<clipPath id="clip0_430_3481">
<rect width="72" height="72" fill="white" transform="translate(0 -0.466797)"/>
</clipPath>
</defs>
</svg>
